<svg xmlns="http://www.w3.org/2000/svg" width="438.351" height="162.716" viewBox="0 0 438.351 162.716"><defs><style>.a{fill:#8c8b8b;}.b{fill:#747476;}.c{fill:#f29810;}</style></defs><g transform="translate(-154 -4305)"><g transform="translate(154 4305)"><path class="a" d="M-500.48,0h3.574l3.335,1.105L-490,3.315l4.05,3.315,5,4.42,4.526,3.868,4.288,3.868,4.526,3.868,9.053,8.012,4.765,4.144,4.288,3.868,4.526,3.868,4.288,3.868,4.765,4.144,4.288,3.868,4.526,3.868,4.288,3.868,6.671,5.8,1.429-.276,2.382-1.658,1.429-1.381,2.144-3.039,2.621-3.591L-404,55.252l1.906-2.486,1.906-1.934,3.335-3.039,3.812-2.486,3.574-1.381,2.859-.553h4.05l2.621.553.238-1.381,1.668-4.42,2.144-4.42,2.621-3.868,3.335-3.868,3.1-2.486,4.05-2.486,4.05-1.658,5-1.381,4.288-.553h3.812l5,.829,4.05,1.381,4.288,2.21,3.1,2.21,2.144,1.934,2.382,2.486L-323,30.388l2.621,4.144,1.429,2.763,1.906,5.249,1.429,5.525.715,4.7v8.84l-.715,4.42L-317.04,71l-2.621,5.8-2.382,3.868-2.382,3.315-.238.553,1.191.553,3.574,3.039,8.338,6.354,5.241,3.868,6.671,4.7,7.623,5.249,3.573,2.486,5.241,3.591,6.194,4.144,6.671,4.7,4.765,3.315,4.526,3.315,5.479,3.868L-244.14,142l4.526,3.315,5.241,3.868,7.147,5.525,4.765,3.868,3.335,2.763.476.829-111.493.276-4.05-.553-3.573-1.105-3.812-1.934-4.05-2.763-4.526-3.315-6.671-4.7-6.194-4.42-5.718-4.144-12.15-8.564-11.2-8.012-13.341-9.393-5.479-3.868-5.718-4.144-7.623-5.249-3.812-2.763-5.956-3.315-.715.276-1.668,2.21-3.812,4.7-5.241,6.078-2.621,2.486-2.859,2.486-3.335,1.934-3.335.829h-2.144l-3.573-.829-4.05-1.934-5.241-3.591-4.526-3.591-25.729-21.548-3.335-2.763-9.053-7.735-5-4.42-3.574-3.039-2.621-1.381h-2.621l-2.859,1.658-3.335,3.315-3.1,3.315-1.906,1.934-4.765,4.973-1.906,1.934-2.382,2.486-1.906,1.934-2.382,2.486-2.621,2.486-3.574,3.868-1.906,1.934-3.335,3.315-2.621,2.763-1.906,1.934-3.335,3.315-3.335,3.591-2.621,2.486-3.335,3.591-2.621,2.486-3.573,3.868-1.906,1.934-2.382,2.486-3.335,3.315-3.1,3.315-1.906,1.934-2.382,2.486-2.859,3.039-4.765,4.973-1.906,1.934-2.382,2.486-3.335,3.315-4.288,3.315-3.812,2.21-3.812,1.381-2.621.553h-5.718l-4.765-.553H-657l4.05-4.7,1.906-1.934,4.05-4.42,3.1-3.315,3.573-3.868,3.1-3.315,3.574-3.868,3.1-3.315,2.859-3.039,2.382-2.486,3.1-3.315,2.382-2.486,3.1-3.315,2.859-3.039,1.906-1.934,3.1-3.315,2.382-2.486,3.574-3.868,4.765-4.973,3.1-3.315,2.382-2.486,5.718-6.078,4.765-4.973,5.718-6.078,3.1-3.315L-571,70.446l2.621-2.763,1.906-1.934,6.194-6.63,2.859-3.039,4.765-4.973,5.718-6.078,3.1-3.315,2.382-2.486,1.906-1.934,3.1-3.315,2.382-2.486,3.574-3.868,1.906-1.934,3.1-3.315,2.382-2.486,2.859-3.039,2.382-2.486,5.718-6.078,1.906-1.934,4.05-3.591,3.812-2.21Z" transform="translate(657 0)"/><path class="b" d="M-500.48,0h3.574l3.335,1.105L-490,3.315l4.05,3.315,5,4.42,4.526,3.868,4.288,3.868,4.526,3.868,9.053,8.012,4.765,4.144,4.288,3.868,4.526,3.868,4.288,3.868,4.765,4.144,4.288,3.868,4.526,3.868,4.288,3.868,6.671,5.8-.238,1.381-2.144,2.763-2.144,3.039-2.859,3.868-1.906,2.763L-428.3,85.64l-2.144,3.039-2.621,3.591-2.144,3.039-2.621,3.039-1.668,2.21-5.956,6.906-2.621,2.486-2.859,2.486-3.335,1.934-3.335.829h-2.144l-3.573-.829-4.05-1.934-5.241-3.591-4.526-3.591-25.729-21.548-3.335-2.763-9.053-7.735-5-4.42-3.574-3.039-2.621-1.381h-2.621l-2.859,1.658-3.335,3.315-3.1,3.315-1.906,1.934-4.765,4.973-1.906,1.934-2.382,2.486-1.906,1.934-2.382,2.486-2.621,2.486-3.574,3.868-1.906,1.934-3.335,3.315-2.621,2.763-1.906,1.934-3.335,3.315-3.335,3.591-2.621,2.486-3.335,3.591-2.621,2.486-3.573,3.868-1.906,1.934-2.382,2.486-3.335,3.315-3.1,3.315-1.906,1.934-2.382,2.486-2.859,3.039-4.765,4.973-1.906,1.934-2.382,2.486-3.335,3.315-4.288,3.315-3.812,2.21-3.812,1.381-2.621.553h-5.718l-4.765-.553H-657l4.05-4.7,1.906-1.934,4.05-4.42,3.1-3.315,3.573-3.868,3.1-3.315,3.574-3.868,3.1-3.315,2.859-3.039,2.382-2.486,3.1-3.315,2.382-2.486,3.1-3.315,2.859-3.039,1.906-1.934,3.1-3.315,2.382-2.486,3.574-3.868,4.765-4.973,3.1-3.315,2.382-2.486,5.718-6.078,4.765-4.973,5.718-6.078,3.1-3.315L-571,70.446l2.621-2.763,1.906-1.934,6.194-6.63,2.859-3.039,4.765-4.973,5.718-6.078,3.1-3.315,2.382-2.486,1.906-1.934,3.1-3.315,2.382-2.486,3.574-3.868,1.906-1.934,3.1-3.315,2.382-2.486,2.859-3.039,2.382-2.486,5.718-6.078,1.906-1.934,4.05-3.591,3.812-2.21Z" transform="translate(657 0)"/><path class="c" d="M-97.506,0h3.812l5,.829,4.05,1.381,4.288,2.21,3.1,2.21,2.144,1.934,2.382,2.486,1.668,1.934,2.621,4.144,1.429,2.763,1.906,5.249,1.429,5.525.715,4.7V44.2l-.715,4.42-1.429,4.973-2.621,5.8-2.382,3.868-2.621,3.591-1.191-.276-6.671-4.144-5.718-3.868L-92.265,54.7-98.935,50l-6.194-4.42-4.526-3.315-3.574-2.486-6.194-4.42-5.479-3.868-1.906-1.934L-128,27.073l.238-1.934,1.668-4.42,2.144-4.42,2.621-3.868,3.335-3.868,3.1-2.486,4.05-2.486,4.05-1.658,5-1.381Z" transform="translate(405.066 17.404)"/></g></g></svg>